<svg width="16" height="16" viewBox="0 0 16 16" fill="none" xmlns="http://www.w3.org/2000/svg">
<path id="Star" d="M2.55707 6.19327L7.76471 8L6.15765 2.53601C6.06047 2.20559 6.15153 1.84847 6.39507 1.60493L7.33449 0.665512C7.70204 0.29796 8.29796 0.297959 8.66551 0.665512L9.57248 1.57248C9.83294 1.83294 9.91752 2.2214 9.78893 2.56657L7.76471 8L13.4531 6.17541C13.7889 6.06771 14.1567 6.15675 14.4061 6.4061L15.3345 7.33449C15.702 7.70204 15.702 8.29796 15.3345 8.66551L14.4061 9.5939C14.1567 9.84325 13.7889 9.93229 13.4531 9.82459L7.76471 8L9.78893 13.4334C9.91752 13.7786 9.83294 14.1671 9.57248 14.4275L8.66551 15.3345C8.29796 15.702 7.70204 15.702 7.33449 15.3345L6.39507 14.3951C6.15153 14.1515 6.06047 13.7944 6.15765 13.464L7.76471 8L2.55707 9.80673C2.21636 9.92494 1.83807 9.83807 1.58306 9.58306L0.665512 8.66551C0.29796 8.29796 0.297959 7.70204 0.665512 7.33449L1.58306 6.41694C1.83807 6.16193 2.21636 6.07506 2.55707 6.19327Z" fill="#1F55C1"/>
</svg>
